<?xml version="1.0" encoding="iso-8859-1"?><svg viewBox="0 0 512.04 512.04" xmlns="http://www.w3.org/2000/svg" xmlns:xlink="http://www.w3.org/1999/xlink"><style>:root>svg{display:none}:root>svg:target{display:block}</style><svg viewBox="0 0 512.043 512.043" id="air" xmlns="http://www.w3.org/2000/svg"><path d="M496.469 353.365l-197.781-197.76V67.904c0-13.845-3.072-27.797-9.131-40.811l-4.501-8.533C279.744 7.104 268.629 0 256.021 0s-23.723 7.104-28.8 18.069l-4.971 9.493c-5.824 12.544-8.896 26.475-8.896 40.341v87.701L15.637 353.323C5.568 363.392.021 376.768.021 391.019v25.003c0 3.904 2.133 7.488 5.547 9.344a10.6 10.6 0 0010.88-.384L217.493 296.15c1.984 32.277 4.672 59.221 7.957 92.011l3.392 33.6-74.688 49.344c-3.008 2.005-4.8 5.333-4.8 8.917v21.333c0 3.221 1.472 6.293 3.989 8.32a10.605 10.605 0 008.981 2.112l93.696-20.843 93.696 20.843c.768.171 1.536.256 2.304.256a10.66 10.66 0 006.677-2.347c2.517-2.048 3.989-5.12 3.989-8.341v-21.333c0-3.584-1.792-6.933-4.8-8.896l-74.688-49.28 3.392-33.707c3.285-32.747 5.973-59.669 7.957-91.947l201.045 128.789a10.613 10.613 0 0010.859.384 10.611 10.611 0 005.568-9.344v-25.003c.002-14.25-5.523-27.626-15.55-37.653z"/></svg><svg viewBox="0 0 205.446 205.446" id="airplane" xmlns="http://www.w3.org/2000/svg"><path d="M179.081 137.899l-45.852-20.475-57.018-59.863a5.337 5.337 0 00-1.736-1.22 5.596 5.596 0 00-5.368.508c-2.24 1.568-2.995 4.481-1.793 6.914l14.988 30.918-36.841-16.459a1983.244 1983.244 0 01-3.514-30.732c-1.568-14.927-5.121-22.851-10.858-24.222a7.494 7.494 0 00-1.714-.197c-5.046 0-9.008 5.1-10.067 7.494L.679 79.718c-.773 1.754-.888 3.285-.336 4.695.934 2.358 3.321 3.378 5.834 4.449l9.026 3.99 42.341 26.967-23.56 6.743a5.48 5.48 0 00-3.926 5.955c.225 1.89 1.457 3.554 3.207 4.345a5.323 5.323 0 002.072.472l45.985 1.396a8.526 8.526 0 005.046 7.444 8.205 8.205 0 003.035.712 8.212 8.212 0 002.545 1.782c4.026 1.804 8.951.064 10.987-3.686a8.484 8.484 0 004.03-2.187l56.138 25.063a8.498 8.498 0 00-1.675 2.459 8.469 8.469 0 00-.168 6.549 8.445 8.445 0 004.491 4.756 8.576 8.576 0 003.504.752 8.576 8.576 0 007.805-5.071 8.392 8.392 0 00.723-2.892l6.098 2.731c1.192.526 2.333 1.077 3.432 1.607 2.584 1.249 5.025 2.423 7.301 2.963.909.215 1.772.326 2.584.326 3.543 0 6.163-1.997 8.103-6.342l.115-.626c.872-15.121-16.801-32.905-26.335-37.171zm-6.495 37.403c-.802 1.797-2.995 2.666-4.835 1.847a3.659 3.659 0 01-1.929-2.033 3.687 3.687 0 01.079-2.795c.544-1.228 1.732-2.04 3.106-2.133l1.925-.14 1.174 1.517c.845 1.089 1.034 2.517.48 3.737zm-137.31-42.907a.584.584 0 01-.358-.469.608.608 0 01.422-.662l34.003-9.738-51.836-32.983-9.409-4.18c-1.109-.48-2.981-1.274-3.189-1.721 0 0-.05-.254.297-1.049l18.624-49.17c.734-1.653 3.819-4.942 6.12-4.395 1.21.29 5.293 2.577 7.122 19.97a2057.12 2057.12 0 003.693 32.188l.161 1.374 51.643 23.066-20.864-43.013a.591.591 0 01.537-.855l.44.183 57.34 60.207 47.065 21.223c7.401 3.31 23.824 18.76 23.459 31.959-1.21 2.473-2.387 2.813-3.371 2.813-.408 0-.877-.064-1.424-.19-1.761-.422-3.869-1.442-6.31-2.613-1.142-.548-2.316-1.117-3.565-1.671l-80.596-35.996-1.113 1.854a3.644 3.644 0 01-3.013 1.772l-1.707.057-.651 1.993c-.802 1.793-2.999 2.666-4.842 1.854-.562-.247-1.049-.662-1.446-1.213l-.827-1.16-1.417.154c-.694.061-1.299-.014-1.89-.279-1.732-.769-2.562-2.727-1.94-4.538l1.084-3.142-52.242-1.63z"/></svg><svg viewBox="0 0 384 384" id="call" xmlns="http://www.w3.org/2000/svg"><path d="M353.188 252.052c-23.51 0-46.594-3.677-68.469-10.906-10.719-3.656-23.896-.302-30.438 6.417l-43.177 32.594c-50.073-26.729-80.917-57.563-107.281-107.26l31.635-42.052c8.219-8.208 11.167-20.198 7.635-31.448-7.26-21.99-10.948-45.063-10.948-68.583C132.146 13.823 118.323 0 101.333 0h-70.52C13.823 0 0 13.823 0 30.813 0 225.563 158.438 384 353.188 384c16.99 0 30.813-13.823 30.813-30.813v-70.323c-.001-16.989-13.824-30.812-30.813-30.812z"/></svg><svg viewBox="0 0 496 496" id="info-icon-1" xmlns="http://www.w3.org/2000/svg"><path d="M48 304v80h336v-80H48zm320 64H64v-48h304v48z"/><path d="M208 336h16v16h-16zM176 336h16v16h-16zM144 336h16v16h-16zM112 336h16v16h-16zM80 336h16v16H80zM336 336h16v16h-16zM304 336h16v16h-16zM272 336h16v16h-16zM240 336h16v16h-16z"/><path d="M496 80V32h-64V0h-48v32h-64v48h16v48h-16v48h32v64h-34.888c-10.984-46.744-52.48-80-101.112-80s-90.128 33.256-101.112 80H0v48h16v208h448V176h32v-48h-16V80h16zm-96-64h16v16h-16V16zM128 480h-16v-32h16v32zm64 0h-16v-32h16v32zm64 0h-16v-32h16v32zm64 0h-16v-32h16v32zm48 0h-32v-48h-48v48h-16v-48h-48v48h-16v-48h-48v48h-16v-48H96v48H64v-64h304v64zm32 0h-16v-80H48v80H32V288h368v192zM194.376 272H160v-8c0-6.552 1.192-12.816 3.264-18.664L194.376 272zm-23.416-41.136c8.704-11.792 21.888-20.04 37.04-22.224v53.968l-37.04-31.744zM224 262.608V208.64c15.152 2.184 28.336 10.432 37.04 22.224L224 262.608zm44.736-17.272C270.808 251.184 272 257.448 272 264v8h-34.376l31.112-26.664zM288 272v-8c0-39.704-32.304-72-72-72s-72 32.296-72 72v8H16v-16h112.2l1.128-6.672C136.472 206.832 172.928 176 216 176s79.528 30.832 86.672 73.328L303.8 256H416v16H288zm160 208h-32V288h16v-48h-64v-64h80v304zm32-320H336v-16h144v16zm-128-32V80h112v48H352zm-16-64V48h144v16H336z"/><path d="M400 96h16v16h-16zM432 96h16v16h-16zM368 96h16v16h-16z"/></svg><svg viewBox="0 0 55 60" id="info-icon-2" xmlns="http://www.w3.org/2000/svg"><path d="M20.533 16.014l-4 7a3.964 3.964 0 00-.395 3.039c.052.17.115.338.189.5l-3.136 10.752A8.929 8.929 0 003.1 43.449L.137 52.817a3 3 0 001.916 3.751l5.237 1.753a4.985 4.985 0 007.821-6.155l6.923-23.74a3.94 3.94 0 001.435-1.44l3.079-5.386 2.747-.5-10.121 33.749a3.989 3.989 0 002.671 4.976A3.9 3.9 0 0023 60a4.025 4.025 0 003.828-2.853l4.959-16.515 5.493 4.489 1.762 11.492a3.983 3.983 0 004.57 3.335 4.005 4.005 0 003.346-4.56l-2-13.01a4.061 4.061 0 00-1.424-2.473l-6.8-5.562 2.146-8.137 3.167 3.49A4.03 4.03 0 0045 31h6a4 4 0 100-8h-4.227L39.5 15a7.519 7.519 0 10-5.851-2.819L23.28 14.066a3.951 3.951 0 00-2.747 1.948zm-3.62 22.828a9.478 9.478 0 00-1.8-.981l2.767-9.488c.046.028.084.066.132.093a3.952 3.952 0 001.778.512zM2.681 54.67a1 1 0 01-.638-1.249L5 44.053a6.945 6.945 0 018.616-4.6 7.555 7.555 0 012.7 1.434l-2.855 9.788A4.944 4.944 0 0011 50a5.006 5.006 0 00-5 5 4.9 4.9 0 00.082.808zM11 58a3 3 0 110-6 3 3 0 010 6zM39.5 2a5.5 5.5 0 110 11 5.5 5.5 0 010-11zm-4.939 12.045a2.029 2.029 0 011.879.566c.039.05.082.095.129.136l9.022 9.926a1 1 0 00.74.327H51a2 2 0 110 4h-6a2.017 2.017 0 01-1.479-.652l-4.4-4.85a1 1 0 00-1.707.417l-2.781 10.54a1 1 0 00.334 1.029l7.3 5.966c.38.314.635.755.718 1.242l2 13A2.013 2.013 0 0143 58a2.017 2.017 0 01-1.981-1.691L39.2 44.438a1 1 0 00-.356-.623l-6.95-5.679a1 1 0 00-1.59.487l-5.391 17.95a2 2 0 01-3.672.373 1.99 1.99 0 01-.152-1.519l10.59-35.31a1 1 0 00-1.136-1.271l-4.81.87a1 1 0 00-.69.488L21.732 26a2 2 0 11-3.462-1.989l4-7.009c.29-.509.79-.862 1.366-.964z"/></svg><svg viewBox="0 0 480 480" id="info-icon-3" xmlns="http://www.w3.org/2000/svg"><path d="M240 0c-26.51 0-48 21.49-48 48s21.49 48 48 48c26.499-.026 47.974-21.501 48-48 0-26.51-21.49-48-48-48zm0 80c-17.673 0-32-14.327-32-32s14.327-32 32-32c17.673 0 32 14.327 32 32s-14.327 32-32 32zM272 104h-1.888l-1.688.84a63.773 63.773 0 01-56.848 0l-1.688-.84H208c-22.08.026-39.974 17.92-40 40v48c0 13.255 10.745 24 24 24h96c13.255 0 24-10.745 24-24v-48c-.026-22.08-17.92-39.974-40-40zm24 88a8 8 0 01-8 8h-96a8 8 0 01-8-8v-48c.002-12.592 9.735-23.042 22.296-23.936a80.061 80.061 0 0067.408 0c12.56.894 22.294 11.344 22.296 23.936v48zM408 264c-26.51 0-48 21.49-48 48s21.49 48 48 48 48-21.49 48-48c-.026-26.499-21.501-47.974-48-48zm0 80c-17.673 0-32-14.327-32-32 0-17.673 14.327-32 32-32 17.673 0 32 14.327 32 32 0 17.673-14.327 32-32 32zM440 368h-1.888l-1.688.8a63.78 63.78 0 01-56.848 0l-1.688-.8H376c-22.08.026-39.974 17.92-40 40v48c0 13.255 10.745 24 24 24h96c13.255 0 24-10.745 24-24v-48c-.026-22.08-17.92-39.974-40-40zm24 88a8 8 0 01-8 8h-96a8 8 0 01-8-8v-48c.002-12.592 9.735-23.042 22.296-23.936a80.061 80.061 0 0067.408 0c12.561.894 22.294 11.344 22.296 23.936v48zM72 264c-26.51 0-48 21.49-48 48s21.49 48 48 48 48-21.49 48-48c-.026-26.499-21.501-47.974-48-48zm0 80c-17.673 0-32-14.327-32-32 0-17.673 14.327-32 32-32s32 14.327 32 32c0 17.673-14.327 32-32 32zM104 368h-1.888l-1.688.8a63.78 63.78 0 01-56.848 0l-1.688-.8H40c-22.08.026-39.974 17.92-40 40v48c0 13.255 10.745 24 24 24h96c13.255 0 24-10.745 24-24v-48c-.026-22.08-17.92-39.974-40-40zm24 88a8 8 0 01-8 8H24a8 8 0 01-8-8v-48c.002-12.592 9.735-23.042 22.296-23.936a80.061 80.061 0 0067.408 0c12.561.894 22.294 11.344 22.296 23.936v48zM319.372 406.276l-.012-.028a8 8 0 00-10.495-4.224 177.456 177.456 0 01-114.104 7.856l7.488-2.2c4.242-1.242 6.674-5.686 5.432-9.928s-5.686-6.674-9.928-5.432l-32 9.384c-.12 0-.208.136-.32.176a7.928 7.928 0 00-2.064 1.144c-.278.15-.545.318-.8.504a7.75 7.75 0 00-1.96 2.72 8.012 8.012 0 00-.608 3.304c.195 1.083.462 2.152.8 3.2.048.112 0 .24.088.352l16 30.616a8.004 8.004 0 1014.192-7.408l-6.512-12.448a192.565 192.565 0 00130.552-7.104 8 8 0 004.251-10.484zM453.656 210.344a8 8 0 00-11.312 0l-11.32 11.32c-6.624-70.07-51.111-130.876-115.888-158.4a8 8 0 10-6.272 14.72c58.11 24.697 98.504 78.669 105.816 141.384l-9.024-9.024a8 8 0 00-11.312 11.312l24 24a8 8 0 0011.314.014l.014-.014 24-24a8 8 0 00-.016-11.312zM175.768 69.272a7.439 7.439 0 00-.208-1.384c0-.072-.088-.12-.12-.2-.032-.08 0-.136 0-.2a7.673 7.673 0 00-.752-1.104 8.076 8.076 0 00-.912-1.32 7.508 7.508 0 00-1.56-1.064 7.037 7.037 0 00-.896-.648l-32-14.616a8 8 0 00-6.64 14.544l16.568 7.576C86.875 104.237 47.955 169.256 48 240a8 8 0 0016 0c-.04-62.293 32.901-119.952 86.584-151.552l-5.784 12.088a8 8 0 003.736 10.664 7.876 7.876 0 003.464.8 8 8 0 007.2-4.536l16-33.384c0-.08 0-.168.064-.248a7.693 7.693 0 00.432-1.696c.137-.431.239-.872.304-1.32a7.977 7.977 0 00-.232-1.544z"/></svg><svg viewBox="0 0 512 512" id="info-icon-4" xmlns="http://www.w3.org/2000/svg"><path d="M391.531 173.803c-4.16-4.16-10.923-4.16-15.083 0L234.667 315.584l-77.803-77.781c-4.16-4.16-10.923-4.16-15.083 0s-4.16 10.923 0 15.083l85.333 85.333a10.716 10.716 0 007.552 3.115c2.731 0 5.461-1.045 7.531-3.115L391.53 188.886c4.161-4.161 4.161-10.923.001-15.083z"/><path d="M472.384 64.448l-213.333-64a10.69 10.69 0 00-6.123 0l-213.333 64C35.093 65.792 32 69.952 32 74.667v234.667c0 94.336 143.829 178.24 220.843 202.197 1.024.32 2.091.469 3.157.469s2.133-.149 3.157-.469C336.171 487.552 480 403.669 480 309.333V74.667c0-4.715-3.093-8.854-7.616-10.219zm-13.717 244.885c0 74.901-118.677 153.664-202.667 180.821-83.989-27.157-202.667-105.92-202.667-180.821V82.603L256 21.803l202.667 60.8v226.73z"/></svg><svg version="1.0" viewBox="0 0 172 123" id="logo" xmlns="http://www.w3.org/2000/svg"><path d="M126 3.6c-1.4.7-3.4 1.4-4.6 1.4-1.6 0-2.6 1.4-4.7 6.7-2.2 5.6-11.9 22.3-12.9 22.3-.2 0-.2-6 0-13.4l.3-13.4-2.5-.6c-3.7-.9-17.2 3.7-24.3 8.3-11.8 7.6-19.9 16.6-27.4 30.5L45.8 53l-5.6.1c-3.2.1-7 .5-8.7.9l-3 .7 4 1.7c2.2 1 4.7 2.4 5.6 3.2.9.8 2 1.4 2.5 1.3 2.1-.4 2.2.3 1 3.8-.7 2.1-1.6 5.1-2 6.7l-.7 2.9 2.5-1.6c3.2-2.1 4.8-2.2 1.8-.1-1.2.8-2.2 2.1-2.2 2.9 0 1.1.8.9 3.6-.7 2.3-1.3 5.9-2.2 10.4-2.6l6.9-.5.6-3.8c.4-2.2 1.1-4.1 1.5-4.4 1.2-.7 17.7 2.9 27.2 6 4.2 1.4 8.9 2.5 10.3 2.5h2.5V58.2l.1-13.7 3 3.5c1.7 1.9 5.1 7.7 7.6 12.8 2.5 5.1 5.1 9.2 5.9 9.2.8 0 1.4.5 1.4 1.1 0 .6.6.9 1.3.6 1.2-.4 5.9 1.7 9 4.2 2.6 2.2 2.2-.3-1.3-7.7-4.1-8.8-8.4-14.6-15.8-21.9l-6.5-6.3 6.3-6.7c8.7-9.3 19-25.8 19-30.4 0-1.7-3.9 1.1-5.4 3.9-2 3.6-2 1.9-.1-1.8 1.7-3.3 1.3-3.5-2.5-1.4zm-25.3 23.6c-.1 4-.3 1-.3-6.7s.1-11 .3-7.3c.2 3.7.2 10 0 14zM93 13.4c0 .2-.8 1-1.7 1.7-1.6 1.3-1.7 1.2-.4-.4 1.3-1.6 2.1-2.1 2.1-1.3zm3.6 52.3c-.4.9-1.9.6-5.8-1.1-6.2-2.7-20.3-7.4-23.6-7.8-2.2-.3-2.1-.6 3.4-11.8 5.2-10.4 6.7-12.5 15.8-21.6l10.1-10 .3 25.5c.1 14.1 0 26.1-.2 26.8zm27.5-49.9c-1.6 2.9-9.7 13.4-14.2 18.2-2.3 2.5-3.5 3.6-2.8 2.5.7-1.1 3.2-4.1 5.5-6.6s5.8-7.1 7.9-10.2c3.6-5.5 5.6-7.6 3.6-3.9zm-41.7 7.4c-3.8 4-8 8.6-9.2 10.3-1.7 2.1-2 2.3-1.2.6C73.2 31.8 87.8 16 88.8 16c.3 0-2.6 3.3-6.4 7.2zM102 36c0 .5-.5 1-1.1 1-.5 0-.7-.5-.4-1 .3-.6.8-1 1.1-1 .2 0 .4.4.4 1zm-32 3c-.6 1.1-1.3 2-1.6 2-.2 0 0-.9.6-2s1.3-2 1.6-2c.2 0 0 .9-.6 2zm39 3.5c1.3 1.4 2.1 2.5 1.8 2.5-.2 0-1.5-1.1-2.8-2.5-1.3-1.4-2.1-2.5-1.8-2.5.2 0 1.5 1.1 2.8 2.5zm9 9c1.3 1.4 2.1 2.5 1.8 2.5-.2 0-1.5-1.1-2.8-2.5-1.3-1.4-2.1-2.5-1.8-2.5.2 0 1.5 1.1 2.8 2.5zm5.5 7.6c2.2 4.1 1.1 3.6-1.4-.7-1.2-1.9-1.6-3.2-1.1-2.9.6.3 1.7 1.9 2.5 3.6zm3.3 6.4c-.3.3-.9-.2-1.2-1.2-.6-1.4-.5-1.5.5-.6.7.7 1 1.5.7 1.8zm-26.5 4.2c-.7.2-1.9.2-2.5 0-.7-.3-.2-.5 1.2-.5s1.9.2 1.3.5zM15.2 87.7l.3 7.8 39.4.5 39.4.5-3.6 2.7-3.6 2.8H15v20h69.3c38 0 69.7-.4 70.3-.8.8-.5 1-3.8.6-10.5l-.5-9.9-30.1.7-30.1.7 3.5-3.1 3.5-3 26.3-.1H154V80H14.9l.3 7.7zM153 88v7h-51.2l-4.4 3.2c-2.4 1.7-4.4 3.5-4.4 4s13.6.8 30.3.8l30.2-.1.3 8.4.3 8.4-44.3.6c-24.4.4-55.2.7-68.5.7H17v-18H87.7l4.9-3.8 4.9-3.7-40.2-.3L17 95V81h136v7z"/><path d="M39.4 88.1c-2.7 5.4-2.6 7.3.4 4.6 2.4-2.2 5-2.2 7.4 0 1 .9 2.1 1.4 2.4 1.1 1-1-4.6-10.8-6.1-10.8-.8 0-2.6 2.3-4.1 5.1zm5.6.5c0 .8-.7 1.4-1.5 1.4-1.5 0-2.1-2.1-.9-3.3 1-.9 2.4.2 2.4 1.9zM53.4 84.4c-.9 2.2 0 9.1 1.1 8.9 1.4-.4 1.9-10.3.5-10.3-.6 0-1.3.6-1.6 1.4zM60.2 88.2c.3 5.2 2 6.9 2.6 2.8.4-2.6 1.3-2.5 4.6.5 1.5 1.4 3.1 2.5 3.7 2.5 1.6 0 1-1.8-1.3-3.4-1.9-1.4-1.9-1.6-.5-2.2 2.1-.8 2.2-4 .1-4.8-.9-.3-3.4-.6-5.5-.6h-4l.3 5.2zm8.6-2c-.7 2-5.8 2.3-5.8.4 0-1.1 1-1.6 3.1-1.6 2 0 2.9.4 2.7 1.2zM76 88.4c0 3.1.5 5.6 1 5.6.6 0 1-.9 1-2 0-1.4.7-2 2.3-2 1.3 0 3.2-.6 4.3-1.4 3-2.3.7-5-4.5-5.4l-4.1-.3v5.5zm7.1-1.9c0 .5-1.2 1.1-2.6 1.3-1.8.2-2.5-.1-2.5-1.3s.7-1.5 2.5-1.3c1.4.2 2.6.7 2.6 1.3zM91.8 84.2c-4 3.3-2.6 8.4 2.7 9.4 4.5.8 8.5-1.6 8.5-5.1 0-4.4-7.4-7.3-11.2-4.3zm7.7 4.3c0 2.8-.3 3-3.5 3-2.6 0-3.6-.5-3.8-1.8-.7-3.4.6-4.8 4-4.5 2.9.3 3.3.6 3.3 3.3zM107 88.5c0 3 .5 5.5 1 5.5.6 0 1-1.1 1-2.5 0-3.2 1.7-3.2 5.2.2 3 2.9 5.2 2.5 2.5-.5-1.5-1.7-1.5-1.9.1-3.6 1.6-1.6 1.6-1.8-.2-3.2-1.1-.8-3.7-1.4-5.8-1.4H107v5.5zm8-2c0 1-1 1.5-3 1.5s-3-.5-3-1.5 1-1.5 3-1.5 3 .5 3 1.5zM121 84c0 .5.9 1 1.9 1 1.6 0 2 .8 2.3 4.2.2 2.4.8 4.3 1.3 4.3.6 0 1.1-1.9 1.3-4.3.3-3.4.7-4.2 2.3-4.2 1 0 1.9-.5 1.9-1 0-.6-2.5-1-5.5-1s-5.5.4-5.5 1zM21 85c0 .6 2.6 1 5.9 1 3.3 0 6.3-.5 6.6-1 .4-.6-1.8-1-5.9-1-3.7 0-6.6.4-6.6 1zM135 85c0 .6 2.8 1 6.5 1s6.5-.4 6.5-1-2.8-1-6.5-1-6.5.4-6.5 1zM21 90c0 .6 2.8 1 6.5 1s6.5-.4 6.5-1-2.8-1-6.5-1-6.5.4-6.5 1zM135 90c0 .6 2.8 1 6.5 1s6.5-.4 6.5-1-2.8-1-6.5-1-6.5.4-6.5 1zM21 112c0 4.4.4 6 1.4 6 .7 0 1.6-1.4 2-3 .7-3.8 1.7-3.8 3.9 0 1 1.7 2.5 3 3.3 3 1.9 0 1.8-.6-1.1-4.5l-2.6-3.3 2.7-2.1c2.2-1.7 2.3-2.1.8-2.1-1 0-3.1 1.2-4.6 2.7l-2.8 2.7v-2.7c0-1.7-.5-2.7-1.5-2.7-1.2 0-1.5 1.3-1.5 6zM37.6 108.7c.9 1.5 2 4.1 2.3 5.7.8 3.9 3.1 4.7 3.1 1 0-1.5 1.1-4.2 2.6-6.1 1.9-2.5 2.1-3.3 1-3.3-.8 0-2.2 1-3.1 2.2l-1.6 2.3-1.9-2.3c-2.7-3.2-4.7-2.9-2.4.5zM51 107.1c0 .7 1.1.9 3 .5 3.9-.7 3.8.2-.5 4.4-5 4.8-4.6 6 2 6 3 0 5.5-.5 5.5-1 0-.6-1.9-1-4.2-1h-4.2l4.2-4.3c2.3-2.3 4.2-4.6 4.2-5 0-.4-2.2-.7-5-.7-3 0-5 .4-5 1.1zM65.4 109.3c1.5 1.9 2.6 4.6 2.6 6.1 0 1.8.5 2.6 1.3 2.3.6-.2 1.1-1.3.9-2.3-.1-1.1.9-3.5 2.3-5.4 2.9-3.9 1.6-5.5-1.5-1.8l-1.9 2.3-1.6-2.3c-.9-1.2-2.3-2.2-3.1-2.2-1.1 0-.9.8 1 3.3zM79 112v6h4.5c2.5 0 4.5-.5 4.5-1 0-.6-1.6-1-3.5-1H81v-5c0-2.8-.4-5-1-5s-1 2.7-1 6zM93 107.6c-2 2.3-1.6 7.5.5 9 2.7 2 7.2 1.7 9.5-.6 2.4-2.4 2.5-4.8.4-7.8-1.8-2.7-8.4-3.1-10.4-.6zm7.4.7c2.6 1.9 1.8 7.1-1.2 7.5-1.3.2-3-.2-3.8-.8-1.9-1.7-1.8-5.7.4-6.9 2.2-1.3 2.5-1.3 4.6.2zM109 111.9c0 3.4.4 6.1 1 6.1s1-1.1 1-2.5c0-3.2 1.7-3.2 5.2.2 3.1 3 5.1 2.4 2.3-.7-1.8-2-1.8-2.1.1-3.5 3.1-2.3.7-4.9-5-5.3l-4.6-.3v6zm8-2.3c0 .9-1.1 1.4-3 1.4-2.7 0-4-1.7-2.5-3.2 1-1 5.5.5 5.5 1.8zM124 112v6h3.6c5.5 0 7.4-1.5 7.4-5.8 0-4.9-1.4-6.2-6.7-6.2H124v6zm8.5.1c0 3.1-.3 3.4-3.2 3.7-3.2.3-3.3.2-3.3-3.6 0-4.7.4-5.2 3.8-4.3 2.3.6 2.7 1.3 2.7 4.2zM140.7 112c-1.8 4.3-2.2 6-1.2 6 .7 0 1.5-.7 1.9-1.5.7-2 6.5-2 7.2 0 .4.8 1.2 1.5 1.9 1.5 1 0 .6-1.7-1.3-6-3.4-7.8-5.1-7.8-8.5 0zm5.6-1c.4 1.5 0 2-1.4 2-2.1 0-2.2-.1-1.3-2.4.8-2.2 2.1-2 2.7.4z"/></svg></svg>